<?xml version="1.0" encoding="utf-8"?>
<!-- Generator: Adobe Illustrator 27.5.0, SVG Export Plug-In . SVG Version: 6.00 Build 0)  -->
<svg version="1.1" id="Layer_1" xmlns="http://www.w3.org/2000/svg" xmlns:xlink="http://www.w3.org/1999/xlink" x="0px" y="0px"
	 viewBox="0 0 269.454 194.27" style="enable-background:new 0 0 269.454 194.27;" xml:space="preserve">
<g>
	<g>
		<path style="fill:#FFFFFF;" d="M29.864,141.448c0.003,0.007,0.007,0.014,0.01,0.021c2.592,5.198,6.212,9.318,10.739,12.232
			c0.04,0.025,0.088,0.057,0.135,0.086c0.53,0.338,1.079,0.664,1.659,0.982c0.022,0.012,0.044,0.023,0.067,0.036
			c6.97,3.789,13.647,3.76,16.245,3.564h77.72c0.007,0.049,0.014,0.098,0.02,0.147l0.096,0.667c0.07,0.473,0.144,0.937,0.224,1.41
			l0.086,0.507c1.739,9.825,5.427,17.27,10.964,22.125c0.021,0.02,0.043,0.038,0.065,0.057c0.349,0.305,0.702,0.595,1.057,0.872
			c0.038,0.029,0.076,0.059,0.113,0.088c1.181,0.911,2.442,1.715,3.747,2.391c0.049,0.024,0.109,0.055,0.168,0.084
			c0.357,0.181,0.715,0.352,1.074,0.511c0.05,0.023,0.102,0.047,0.15,0.068c1.234,0.541,2.521,0.983,3.825,1.315
			c0.06,0.016,0.121,0.03,0.181,0.045c0.345,0.085,0.689,0.161,1.033,0.231c0.001,0,0.001,0,0.001,0
			c0.026,0.006,0.051,0.01,0.076,0.016c1.81,0.361,3.569,0.51,5.24,0.51c6.848,0,12.213-2.502,13.538-3.179
			c0.906-0.457,12.183-6.203,26.87-15.867c0.051-0.033,0.063-0.042,0.114-0.076c9.493-6.25,18.339-12.778,26.299-19.406
			c0.101-0.079,0.201-0.159,0.3-0.242l0.535-0.455c0.875-0.736,1.748-1.48,2.623-2.237l0.746-0.643
			c1.143-0.996,2.279-2.008,3.407-3.033c0.04-0.035,0.08-0.072,0.121-0.11c1.845-1.679,3.614-3.344,5.259-4.95
			c6.808-6.646,11.602-12.876,14.631-19.019c0.134-0.212,0.267-0.429,0.397-0.65c0.021-0.037,0.043-0.074,0.064-0.111
			c0.021-0.037,0.043-0.077,0.066-0.117c0.246-0.43,0.484-0.875,0.712-1.339c0.022-0.046,0.045-0.092,0.067-0.139
			c0.018-0.038,0.037-0.078,0.056-0.119c0.236-0.496,0.445-0.975,0.633-1.45c0.05-0.126,0.099-0.255,0.146-0.387
			c0.195-0.515,0.36-0.996,0.501-1.458c0.06-0.196,0.116-0.398,0.169-0.606c0.126-0.448,0.244-0.902,0.349-1.388
			c0.056-0.259,0.104-0.529,0.151-0.825l0.009-0.052c0.074-0.397,0.142-0.796,0.196-1.217c0.045-0.359,0.077-0.734,0.103-1.109
			l0.007-0.091c0.031-0.324,0.058-0.647,0.07-0.978c0.024-0.587,0.027-1.182,0.011-1.774c0.126-4.739-1.034-9.31-3.358-13.235
			c-0.118-0.199-0.237-0.395-0.358-0.587c-2.849-5.771-7.248-11.605-13.414-17.8c-0.394-0.397-0.798-0.798-1.207-1.197
			c-1.181-1.152-2.379-2.284-3.581-3.401l-0.874-0.808c-1.081-0.994-2.168-1.976-3.279-2.957l-0.267-0.24
			c-0.056-0.049-0.112-0.098-0.169-0.146c-26.736-23.495-56.406-38.613-58.113-39.475c-1.399-0.713-7.909-3.751-15.893-3.072v0
			c-0.047,0.003-0.094,0.008-0.141,0.013c-1.651,0.15-3.276,0.456-4.88,0.922c-5.779,1.691-10.712,5.446-14.265,10.858
			c-0.001,0.002-0.003,0.005-0.005,0.008c-0.004,0.006-0.008,0.011-0.011,0.017c-3.269,4.991-5.395,11.273-6.458,19.12H58.729
			c-2.852-0.218-10.482-0.237-18.059,4.631c-0.032,0.02-0.064,0.041-0.095,0.061c-5.816,3.763-12.958,11.415-14.84,26.655
			c-0.32,1.033-0.488,2.12-0.488,3.23v34.814c0,1.111,0.169,2.2,0.49,3.235C26.409,132.447,27.793,137.288,29.864,141.448z"/>
		<path style="fill:#F1F1F1;" d="M28.181,139.765c0.003,0.008,0.007,0.015,0.01,0.021c2.592,5.199,6.204,9.332,10.739,12.232
			c0.04,0.025,0.088,0.056,0.135,0.085c0.533,0.334,1.079,0.665,1.659,0.982c0.022,0.013,0.044,0.024,0.067,0.037
			c6.99,3.753,13.647,3.76,16.245,3.563h77.72c0.006,0.05,0.013,0.099,0.02,0.148l0.096,0.667c0.07,0.473,0.144,0.936,0.224,1.41
			l0.086,0.506c1.738,9.826,5.476,17.216,10.963,22.126c0.022,0.02,0.043,0.038,0.065,0.057c0.351,0.303,0.703,0.594,1.057,0.872
			c0.038,0.029,0.075,0.059,0.113,0.088c1.176,0.918,2.438,1.721,3.747,2.39c0.05,0.025,0.109,0.055,0.168,0.085
			c0.357,0.181,0.716,0.349,1.074,0.511c0.05,0.022,0.102,0.047,0.15,0.068c1.234,0.54,2.522,0.978,3.825,1.315
			c0.059,0.016,0.121,0.029,0.181,0.044c0.345,0.083,0.69,0.162,1.033,0.232h0.001c0.025,0.005,0.05,0.01,0.076,0.016
			c1.807,0.377,3.569,0.509,5.24,0.509c6.848,0,12.211-2.505,13.538-3.178c0.904-0.46,12.183-6.203,26.869-15.867
			c0.051-0.033,0.063-0.042,0.114-0.076c9.449-6.318,18.339-12.778,26.299-19.406c0.101-0.079,0.201-0.16,0.3-0.242l0.535-0.456
			c0.875-0.735,1.748-1.48,2.623-2.236l0.746-0.644c1.143-0.997,2.275-2.013,3.408-3.033c0.039-0.035,0.079-0.072,0.121-0.11
			c1.835-1.69,3.614-3.345,5.259-4.95c6.808-6.646,11.602-12.876,14.631-19.019c0.134-0.212,0.266-0.428,0.397-0.65
			c0.022-0.037,0.043-0.074,0.064-0.111c0.022-0.038,0.044-0.077,0.066-0.117c0.244-0.431,0.484-0.875,0.712-1.34
			c0.023-0.046,0.045-0.092,0.067-0.138c0.017-0.038,0.036-0.078,0.056-0.119c0.233-0.498,0.445-0.975,0.634-1.45
			c0.049-0.126,0.097-0.255,0.145-0.386c0.19-0.517,0.36-0.996,0.501-1.458c0.06-0.196,0.113-0.399,0.169-0.607
			c0.12-0.45,0.245-0.902,0.349-1.387c0.056-0.259,0.104-0.529,0.151-0.825l0.009-0.052c0.074-0.397,0.143-0.796,0.196-1.217
			c0.045-0.359,0.077-0.734,0.103-1.108l0.007-0.091c0.032-0.324,0.058-0.647,0.07-0.979c0.023-0.587,0.027-1.182,0.011-1.774
			c0.126-4.739-1.033-9.31-3.358-13.235c-0.118-0.199-0.237-0.394-0.358-0.587c-2.849-5.771-7.248-11.605-13.413-17.799
			c-0.395-0.397-0.798-0.798-1.208-1.197c-1.181-1.153-2.379-2.285-3.58-3.401l-0.875-0.807c-1.08-0.994-2.167-1.976-3.279-2.958
			l-0.267-0.24c-0.056-0.049-0.112-0.097-0.168-0.145c-26.921-23.284-56.408-38.61-58.113-39.475
			c-1.401-0.711-7.909-3.751-15.893-3.073v0c-0.047,0.004-0.094,0.008-0.141,0.013c-1.65,0.156-3.277,0.455-4.88,0.921
			c-5.779,1.691-10.712,5.446-14.265,10.859c-0.001,0.002-0.003,0.005-0.005,0.008c-0.004,0.005-0.007,0.011-0.011,0.017
			c-3.269,4.991-5.394,11.273-6.458,19.12H57.046c-2.851-0.218-10.482-0.237-18.058,4.631c-0.032,0.021-0.064,0.041-0.095,0.061
			c-5.816,3.763-12.958,11.414-14.84,26.655c-0.32,1.033-0.488,2.121-0.488,3.23v34.815c0,1.111,0.169,2.2,0.49,3.234
			C24.726,130.765,26.11,135.605,28.181,139.765z"/>
		<path style="fill:#E2E2E2;" d="M26.499,138.082c0.003,0.008,0.007,0.014,0.01,0.021c2.591,5.199,6.204,9.332,10.739,12.232
			c0.04,0.024,0.088,0.056,0.135,0.085c0.532,0.334,1.079,0.664,1.659,0.982c0.021,0.013,0.044,0.024,0.067,0.036
			c6.989,3.754,13.648,3.761,16.245,3.563h77.72c0.006,0.05,0.014,0.099,0.02,0.148l0.096,0.667c0.07,0.474,0.143,0.938,0.224,1.41
			l0.085,0.507c1.739,9.825,5.476,17.215,10.964,22.126c0.021,0.019,0.043,0.038,0.065,0.056c0.351,0.303,0.703,0.594,1.057,0.873
			c0.038,0.029,0.075,0.058,0.113,0.088c1.176,0.917,2.439,1.721,3.748,2.39c0.049,0.025,0.109,0.055,0.167,0.084
			c0.357,0.182,0.717,0.35,1.075,0.512c0.05,0.023,0.102,0.046,0.15,0.067c1.234,0.541,2.523,0.979,3.825,1.315
			c0.06,0.016,0.121,0.03,0.181,0.045c0.345,0.082,0.689,0.161,1.033,0.231h0c0.025,0.006,0.051,0.011,0.076,0.017
			c1.807,0.376,3.569,0.509,5.24,0.509c6.848,0,12.211-2.505,13.538-3.179c0.905-0.459,12.183-6.202,26.87-15.866
			c0.051-0.034,0.063-0.042,0.114-0.076c9.449-6.318,18.34-12.779,26.3-19.406c0.101-0.079,0.201-0.16,0.299-0.242l0.536-0.456
			c0.874-0.735,1.747-1.48,2.622-2.236l0.747-0.645c1.143-0.996,2.275-2.012,3.407-3.032c0.039-0.035,0.08-0.072,0.121-0.11
			c1.835-1.69,3.614-3.345,5.259-4.95c6.808-6.646,11.602-12.876,14.631-19.019c0.134-0.212,0.267-0.428,0.397-0.65
			c0.021-0.037,0.043-0.074,0.064-0.111c0.021-0.038,0.043-0.077,0.065-0.117c0.244-0.432,0.484-0.875,0.712-1.34
			c0.022-0.046,0.045-0.092,0.067-0.138c0.018-0.038,0.036-0.078,0.056-0.119c0.232-0.497,0.445-0.975,0.633-1.45
			c0.05-0.125,0.097-0.255,0.146-0.386c0.189-0.517,0.36-0.996,0.501-1.458c0.06-0.196,0.112-0.399,0.168-0.606
			c0.12-0.45,0.245-0.902,0.349-1.388c0.056-0.259,0.104-0.529,0.151-0.825l0.009-0.052c0.074-0.398,0.143-0.796,0.196-1.217
			c0.045-0.359,0.077-0.734,0.103-1.109l0.007-0.091c0.031-0.324,0.057-0.647,0.07-0.978c0.023-0.587,0.027-1.182,0.011-1.774
			c0.126-4.739-1.034-9.31-3.358-13.235c-0.118-0.199-0.237-0.395-0.358-0.586c-2.849-5.771-7.247-11.606-13.413-17.8
			c-0.394-0.397-0.798-0.798-1.208-1.197c-1.18-1.152-2.379-2.284-3.58-3.401l-0.875-0.808c-1.081-0.994-2.168-1.976-3.279-2.958
			l-0.267-0.24c-0.056-0.049-0.113-0.097-0.168-0.146c-26.92-23.284-56.408-38.61-58.113-39.475
			c-1.401-0.71-7.909-3.751-15.893-3.073v0c-0.047,0.004-0.094,0.008-0.141,0.013c-1.65,0.156-3.277,0.455-4.88,0.922
			c-5.779,1.691-10.712,5.446-14.265,10.858c-0.001,0.002-0.003,0.005-0.005,0.008c-0.003,0.006-0.007,0.011-0.011,0.017
			c-3.269,4.991-5.394,11.273-6.458,19.12H55.363c-2.851-0.218-10.482-0.237-18.058,4.63c-0.032,0.021-0.064,0.041-0.095,0.061
			c-5.816,3.763-12.958,11.414-14.84,26.655c-0.32,1.033-0.489,2.12-0.489,3.23v34.814c0,1.112,0.169,2.201,0.49,3.235
			C23.043,129.081,24.427,133.922,26.499,138.082z"/>
		<path style="fill:#D4D4D4;" d="M24.816,136.399c0.003,0.007,0.007,0.014,0.01,0.021c2.592,5.198,6.204,9.332,10.739,12.232
			c0.039,0.025,0.088,0.056,0.135,0.086c0.533,0.334,1.079,0.664,1.659,0.982c0.022,0.012,0.044,0.024,0.067,0.036
			c6.99,3.754,13.647,3.76,16.245,3.563h77.72c0.006,0.049,0.013,0.099,0.02,0.148l0.096,0.667c0.07,0.473,0.144,0.938,0.224,1.41
			l0.086,0.507c1.738,9.825,5.476,17.215,10.963,22.125c0.021,0.02,0.043,0.038,0.065,0.057c0.351,0.303,0.703,0.594,1.057,0.872
			c0.038,0.03,0.075,0.059,0.113,0.088c1.176,0.918,2.439,1.722,3.747,2.391c0.05,0.024,0.109,0.055,0.168,0.084
			c0.357,0.181,0.717,0.349,1.074,0.512c0.05,0.021,0.102,0.046,0.15,0.067c1.234,0.541,2.523,0.977,3.825,1.315
			c0.06,0.016,0.121,0.029,0.181,0.045c0.345,0.082,0.69,0.161,1.033,0.231h0c0.025,0.006,0.05,0.011,0.076,0.016
			c1.807,0.377,3.569,0.51,5.24,0.51c6.848,0,12.211-2.505,13.537-3.179c0.905-0.459,12.183-6.203,26.87-15.867
			c0.051-0.033,0.063-0.042,0.114-0.076c9.449-6.317,18.339-12.778,26.299-19.406c0.101-0.078,0.201-0.159,0.3-0.242l0.535-0.455
			c0.875-0.736,1.747-1.48,2.622-2.237l0.747-0.644c1.143-0.996,2.275-2.012,3.408-3.032c0.039-0.036,0.079-0.073,0.121-0.11
			c1.835-1.69,3.614-3.345,5.259-4.951c6.808-6.646,11.602-12.876,14.631-19.018c0.134-0.212,0.266-0.428,0.396-0.65
			c0.022-0.037,0.043-0.074,0.064-0.111c0.021-0.038,0.043-0.078,0.066-0.117c0.244-0.431,0.484-0.875,0.712-1.34
			c0.023-0.046,0.045-0.092,0.067-0.138c0.018-0.038,0.036-0.079,0.056-0.12c0.233-0.497,0.445-0.975,0.634-1.45
			c0.049-0.126,0.097-0.255,0.145-0.387c0.19-0.517,0.36-0.996,0.501-1.458c0.06-0.196,0.113-0.399,0.168-0.607
			c0.12-0.45,0.244-0.902,0.349-1.387c0.056-0.26,0.104-0.529,0.151-0.825l0.009-0.052c0.074-0.397,0.143-0.796,0.196-1.217
			c0.045-0.359,0.077-0.734,0.103-1.108l0.007-0.092c0.032-0.324,0.058-0.647,0.07-0.978c0.024-0.587,0.027-1.182,0.011-1.774
			c0.126-4.739-1.033-9.31-3.358-13.235c-0.118-0.199-0.237-0.395-0.358-0.587c-2.849-5.771-7.248-11.605-13.414-17.799
			c-0.395-0.398-0.798-0.798-1.207-1.197c-1.181-1.153-2.379-2.285-3.58-3.401l-0.875-0.808c-1.08-0.994-2.167-1.976-3.279-2.958
			l-0.267-0.24c-0.056-0.049-0.113-0.097-0.168-0.145c-26.92-23.284-56.408-38.61-58.113-39.475
			c-1.401-0.711-7.909-3.751-15.893-3.073v0c-0.047,0.003-0.094,0.008-0.141,0.013c-1.651,0.156-3.277,0.455-4.88,0.922
			c-5.779,1.691-10.712,5.446-14.265,10.859c-0.001,0.002-0.003,0.005-0.005,0.008c-0.004,0.005-0.007,0.011-0.011,0.017
			c-3.269,4.991-5.395,11.274-6.458,19.12H53.681c-2.852-0.218-10.482-0.237-18.059,4.631c-0.032,0.021-0.064,0.041-0.094,0.061
			c-5.816,3.763-12.958,11.414-14.84,26.655c-0.32,1.033-0.488,2.121-0.488,3.23v34.814c0,1.111,0.169,2.201,0.49,3.235
			C21.36,127.398,22.744,132.239,24.816,136.399z"/>
		<path style="fill:#C5C5C5;" d="M23.133,134.717c0.003,0.007,0.007,0.014,0.01,0.021c2.591,5.199,6.204,9.332,10.739,12.232
			c0.039,0.025,0.088,0.056,0.135,0.086c0.533,0.334,1.079,0.664,1.66,0.982c0.021,0.012,0.044,0.023,0.066,0.036
			c6.99,3.753,13.648,3.76,16.245,3.563h77.72c0.006,0.049,0.013,0.098,0.02,0.148l0.096,0.667c0.07,0.473,0.144,0.937,0.224,1.41
			l0.086,0.506c1.739,9.826,5.476,17.216,10.963,22.126c0.021,0.02,0.044,0.038,0.065,0.057c0.351,0.303,0.703,0.594,1.057,0.872
			c0.038,0.029,0.076,0.059,0.113,0.088c1.176,0.918,2.438,1.721,3.747,2.39c0.049,0.025,0.109,0.055,0.168,0.085
			c0.357,0.181,0.716,0.349,1.074,0.511c0.05,0.023,0.102,0.047,0.15,0.068c1.234,0.54,2.522,0.978,3.825,1.315
			c0.06,0.016,0.121,0.029,0.181,0.044c0.345,0.083,0.69,0.162,1.033,0.232h0.001c0.025,0.006,0.051,0.01,0.076,0.016
			c1.807,0.377,3.569,0.51,5.24,0.51c6.848,0,12.211-2.506,13.538-3.179c0.904-0.459,12.183-6.203,26.87-15.867
			c0.051-0.033,0.063-0.042,0.114-0.076c9.449-6.317,18.339-12.778,26.299-19.406c0.102-0.079,0.201-0.159,0.3-0.242l0.535-0.455
			c0.875-0.736,1.748-1.48,2.623-2.237l0.746-0.644c1.143-0.997,2.275-2.013,3.408-3.033c0.04-0.035,0.079-0.072,0.121-0.11
			c1.835-1.691,3.614-3.345,5.259-4.95c6.808-6.647,11.602-12.876,14.631-19.019c0.134-0.212,0.266-0.428,0.396-0.65
			c0.022-0.037,0.043-0.074,0.064-0.111c0.021-0.038,0.044-0.077,0.066-0.117c0.244-0.432,0.484-0.875,0.712-1.34
			c0.022-0.046,0.045-0.092,0.066-0.138c0.018-0.038,0.036-0.078,0.056-0.119c0.233-0.498,0.445-0.975,0.634-1.45
			c0.05-0.126,0.097-0.255,0.145-0.386c0.19-0.517,0.361-0.996,0.501-1.458c0.06-0.196,0.113-0.399,0.168-0.607
			c0.12-0.45,0.245-0.902,0.349-1.387c0.056-0.259,0.104-0.529,0.151-0.825l0.009-0.052c0.074-0.397,0.143-0.796,0.196-1.216
			c0.045-0.359,0.077-0.734,0.103-1.109l0.007-0.091c0.032-0.324,0.058-0.647,0.07-0.978c0.023-0.587,0.027-1.182,0.011-1.774
			c0.126-4.74-1.034-9.31-3.358-13.235c-0.118-0.199-0.237-0.395-0.358-0.587c-2.849-5.771-7.248-11.605-13.414-17.799
			c-0.394-0.397-0.798-0.798-1.208-1.197c-1.181-1.153-2.379-2.285-3.58-3.401l-0.875-0.808c-1.08-0.994-2.167-1.976-3.279-2.958
			l-0.267-0.24c-0.056-0.048-0.113-0.097-0.168-0.145c-26.921-23.284-56.408-38.61-58.113-39.475
			c-1.401-0.71-7.909-3.751-15.893-3.073v0.001c-0.047,0.004-0.094,0.008-0.141,0.013c-1.65,0.156-3.277,0.456-4.88,0.921
			c-5.779,1.691-10.712,5.446-14.265,10.859c-0.001,0.002-0.003,0.005-0.005,0.008c-0.003,0.006-0.007,0.011-0.011,0.017
			c-3.269,4.991-5.394,11.274-6.458,19.12H51.998c-2.851-0.218-10.482-0.237-18.058,4.631c-0.032,0.021-0.064,0.041-0.095,0.061
			c-5.816,3.763-12.958,11.414-14.84,26.655c-0.32,1.033-0.489,2.121-0.489,3.23v34.815c0,1.111,0.17,2.2,0.49,3.235
			C19.677,125.716,21.062,130.557,23.133,134.717z"/>
		<path style="fill:#B7B7B7;" d="M21.45,133.033c0.003,0.008,0.007,0.014,0.01,0.021c2.592,5.199,6.204,9.332,10.739,12.232
			c0.04,0.025,0.089,0.057,0.135,0.085c0.532,0.334,1.079,0.664,1.659,0.982c0.022,0.013,0.044,0.024,0.067,0.036
			c6.989,3.754,13.647,3.761,16.245,3.564h77.72c0.007,0.05,0.014,0.099,0.02,0.147l0.096,0.667c0.07,0.474,0.144,0.938,0.224,1.41
			l0.085,0.507c1.739,9.826,5.476,17.215,10.964,22.126c0.021,0.02,0.043,0.038,0.065,0.057c0.351,0.302,0.703,0.594,1.057,0.872
			c0.038,0.029,0.076,0.058,0.113,0.088c1.176,0.917,2.438,1.721,3.747,2.39c0.049,0.025,0.109,0.055,0.168,0.085
			c0.357,0.181,0.716,0.349,1.074,0.511c0.05,0.023,0.102,0.046,0.15,0.067c1.234,0.541,2.522,0.979,3.825,1.315
			c0.06,0.017,0.121,0.03,0.181,0.045c0.345,0.083,0.689,0.161,1.033,0.232h0.001c0.026,0.006,0.051,0.011,0.076,0.017
			c1.807,0.376,3.569,0.509,5.24,0.509c6.848,0,12.212-2.505,13.538-3.178c0.905-0.46,12.183-6.203,26.87-15.867
			c0.051-0.034,0.063-0.042,0.114-0.076c9.449-6.317,18.339-12.779,26.299-19.406c0.101-0.079,0.201-0.16,0.3-0.242l0.535-0.456
			c0.875-0.735,1.748-1.48,2.623-2.236l0.747-0.644c1.143-0.997,2.275-2.013,3.407-3.033c0.039-0.035,0.08-0.072,0.121-0.11
			c1.835-1.69,3.614-3.345,5.259-4.95c6.808-6.646,11.602-12.876,14.631-19.019c0.134-0.212,0.267-0.428,0.397-0.65
			c0.021-0.037,0.043-0.074,0.064-0.111c0.021-0.037,0.043-0.077,0.066-0.117c0.243-0.431,0.484-0.876,0.712-1.34
			c0.023-0.046,0.045-0.092,0.067-0.138c0.018-0.038,0.036-0.078,0.056-0.119c0.233-0.497,0.445-0.975,0.633-1.45
			c0.05-0.126,0.097-0.255,0.145-0.387c0.189-0.517,0.36-0.996,0.502-1.458c0.059-0.196,0.113-0.399,0.168-0.607
			c0.12-0.45,0.244-0.902,0.349-1.388c0.056-0.259,0.104-0.529,0.151-0.825l0.009-0.052c0.074-0.397,0.142-0.796,0.196-1.217
			c0.045-0.359,0.077-0.734,0.103-1.109l0.007-0.091c0.031-0.324,0.058-0.647,0.07-0.978c0.024-0.587,0.027-1.182,0.011-1.774
			c0.126-4.739-1.034-9.31-3.358-13.235c-0.118-0.199-0.237-0.395-0.358-0.587c-2.849-5.771-7.248-11.605-13.414-17.8
			c-0.394-0.397-0.798-0.798-1.207-1.197c-1.181-1.152-2.379-2.284-3.581-3.401l-0.874-0.808c-1.081-0.994-2.168-1.976-3.279-2.958
			l-0.267-0.24c-0.056-0.049-0.113-0.097-0.168-0.145c-26.92-23.284-56.408-38.61-58.113-39.475
			c-1.401-0.71-7.909-3.751-15.893-3.072v0c-0.047,0.003-0.094,0.008-0.141,0.013c-1.65,0.156-3.276,0.456-4.88,0.922
			c-5.779,1.691-10.712,5.446-14.265,10.858c-0.002,0.002-0.004,0.005-0.005,0.008c-0.004,0.005-0.008,0.011-0.011,0.017
			c-3.269,4.991-5.395,11.273-6.459,19.12H50.315c-2.852-0.218-10.482-0.237-18.059,4.631c-0.032,0.02-0.064,0.041-0.095,0.06
			c-5.816,3.763-12.958,11.415-14.84,26.655c-0.32,1.033-0.488,2.12-0.488,3.23v34.814c0,1.111,0.169,2.201,0.49,3.235
			C17.994,124.032,19.378,128.873,21.45,133.033z"/>
		<path style="fill:#A8A8A8;" d="M19.767,131.351c0.003,0.008,0.007,0.014,0.01,0.021c2.592,5.199,6.205,9.332,10.739,12.232
			c0.04,0.024,0.088,0.056,0.135,0.085c0.533,0.334,1.079,0.664,1.659,0.982c0.022,0.012,0.044,0.024,0.067,0.036
			c6.99,3.754,13.647,3.76,16.245,3.564h77.72c0.006,0.049,0.013,0.099,0.02,0.148l0.096,0.667c0.07,0.474,0.144,0.938,0.224,1.41
			l0.086,0.507c1.738,9.825,5.476,17.215,10.963,22.125c0.021,0.02,0.043,0.038,0.065,0.057c0.351,0.303,0.703,0.594,1.057,0.872
			c0.038,0.03,0.075,0.059,0.113,0.089c1.176,0.917,2.438,1.721,3.747,2.39c0.05,0.024,0.109,0.055,0.168,0.084
			c0.357,0.181,0.717,0.349,1.074,0.512c0.05,0.022,0.102,0.046,0.15,0.067c1.234,0.541,2.523,0.977,3.825,1.315
			c0.06,0.016,0.121,0.029,0.181,0.045c0.345,0.082,0.69,0.161,1.033,0.232c0,0,0,0,0,0c0.025,0.006,0.05,0.011,0.076,0.016
			c1.807,0.378,3.569,0.51,5.24,0.51c6.848,0,12.212-2.505,13.538-3.179c0.905-0.459,12.183-6.203,26.869-15.867
			c0.051-0.033,0.063-0.041,0.114-0.076c9.449-6.317,18.339-12.778,26.299-19.406c0.101-0.078,0.201-0.159,0.3-0.242l0.535-0.455
			c0.875-0.735,1.748-1.48,2.623-2.236l0.746-0.645c1.143-0.996,2.275-2.012,3.408-3.032c0.04-0.035,0.079-0.072,0.121-0.11
			c1.835-1.69,3.614-3.345,5.259-4.951c6.808-6.646,11.602-12.875,14.631-19.018c0.134-0.212,0.266-0.428,0.396-0.65
			c0.022-0.037,0.043-0.074,0.065-0.111c0.021-0.038,0.043-0.077,0.066-0.117c0.244-0.431,0.484-0.875,0.712-1.34
			c0.023-0.046,0.045-0.092,0.067-0.138c0.018-0.038,0.036-0.078,0.056-0.119c0.233-0.498,0.445-0.975,0.634-1.45
			c0.049-0.126,0.097-0.255,0.145-0.386c0.19-0.517,0.36-0.996,0.501-1.458c0.06-0.196,0.113-0.399,0.169-0.607
			c0.12-0.45,0.245-0.902,0.349-1.387c0.056-0.259,0.104-0.529,0.151-0.825l0.009-0.052c0.074-0.397,0.143-0.796,0.196-1.217
			c0.045-0.359,0.077-0.734,0.102-1.108l0.007-0.091c0.032-0.324,0.058-0.648,0.07-0.979c0.023-0.587,0.027-1.182,0.011-1.774
			c0.126-4.739-1.033-9.31-3.358-13.235c-0.118-0.199-0.237-0.395-0.358-0.587c-2.849-5.771-7.248-11.605-13.414-17.799
			c-0.395-0.397-0.798-0.798-1.207-1.197c-1.181-1.153-2.379-2.285-3.58-3.401l-0.875-0.808c-1.08-0.993-2.167-1.976-3.279-2.958
			l-0.267-0.24c-0.056-0.049-0.112-0.097-0.168-0.145c-26.921-23.284-56.408-38.61-58.113-39.475
			c-1.401-0.711-7.909-3.752-15.893-3.073v0c-0.047,0.004-0.094,0.008-0.141,0.013c-1.65,0.156-3.277,0.455-4.88,0.921
			c-5.779,1.691-10.712,5.446-14.265,10.859c-0.001,0.002-0.003,0.005-0.005,0.008c-0.004,0.005-0.007,0.011-0.011,0.017
			c-3.269,4.991-5.394,11.273-6.458,19.12H48.632c-2.852-0.218-10.482-0.237-18.058,4.631c-0.032,0.021-0.064,0.041-0.095,0.061
			c-5.816,3.763-12.958,11.415-14.84,26.655c-0.32,1.033-0.488,2.121-0.488,3.23v34.814c0,1.112,0.169,2.201,0.49,3.235
			C16.312,122.35,17.696,127.19,19.767,131.351z"/>
		<path style="fill:#9A9A9A;" d="M18.084,129.668c0.003,0.007,0.007,0.014,0.01,0.021c2.591,5.198,6.204,9.332,10.739,12.231
			c0.04,0.025,0.088,0.056,0.135,0.086c0.533,0.334,1.079,0.664,1.659,0.982c0.021,0.012,0.044,0.023,0.067,0.036
			c6.989,3.753,13.647,3.76,16.245,3.563h77.72c0.006,0.049,0.014,0.098,0.02,0.147l0.096,0.667c0.07,0.473,0.144,0.937,0.224,1.41
			l0.085,0.507c1.739,9.825,5.476,17.215,10.964,22.125c0.021,0.02,0.043,0.038,0.065,0.057c0.351,0.303,0.703,0.594,1.057,0.872
			c0.038,0.029,0.075,0.059,0.113,0.088c1.176,0.918,2.439,1.722,3.747,2.39c0.049,0.025,0.109,0.055,0.167,0.085
			c0.357,0.181,0.717,0.349,1.075,0.511c0.05,0.023,0.102,0.047,0.15,0.068c1.234,0.541,2.523,0.978,3.825,1.316
			c0.06,0.016,0.121,0.029,0.181,0.044c0.345,0.083,0.689,0.162,1.033,0.232h0c0.025,0.006,0.051,0.01,0.076,0.016
			c1.807,0.378,3.569,0.51,5.24,0.51c6.848,0,12.211-2.505,13.538-3.179c0.905-0.459,12.183-6.203,26.87-15.867
			c0.051-0.033,0.063-0.042,0.114-0.076c9.449-6.317,18.34-12.778,26.3-19.406c0.101-0.079,0.201-0.159,0.299-0.242l0.536-0.455
			c0.875-0.736,1.747-1.48,2.623-2.237l0.747-0.644c1.143-0.996,2.275-2.013,3.407-3.033c0.039-0.035,0.08-0.072,0.121-0.11
			c1.835-1.69,3.614-3.344,5.259-4.95c6.808-6.646,11.602-12.876,14.631-19.019c0.134-0.212,0.267-0.428,0.397-0.65
			c0.021-0.037,0.043-0.074,0.064-0.111c0.021-0.037,0.043-0.077,0.065-0.117c0.244-0.432,0.484-0.875,0.712-1.34
			c0.022-0.046,0.045-0.092,0.067-0.138c0.018-0.038,0.036-0.078,0.056-0.119c0.232-0.498,0.445-0.975,0.633-1.45
			c0.05-0.125,0.097-0.255,0.146-0.386c0.189-0.517,0.36-0.996,0.501-1.458c0.06-0.196,0.113-0.399,0.168-0.606
			c0.12-0.45,0.245-0.902,0.349-1.388c0.056-0.259,0.104-0.529,0.151-0.825l0.009-0.052c0.074-0.397,0.143-0.796,0.196-1.217
			c0.045-0.359,0.077-0.734,0.102-1.109l0.007-0.091c0.031-0.324,0.057-0.647,0.07-0.978c0.023-0.587,0.027-1.182,0.011-1.774
			c0.126-4.739-1.034-9.31-3.358-13.235c-0.118-0.199-0.237-0.395-0.358-0.587c-2.849-5.771-7.248-11.605-13.414-17.8
			c-0.394-0.397-0.798-0.798-1.208-1.197c-1.18-1.153-2.379-2.285-3.58-3.401l-0.874-0.808c-1.081-0.994-2.168-1.976-3.279-2.958
			l-0.267-0.24c-0.056-0.049-0.113-0.097-0.169-0.146c-26.92-23.284-56.408-38.61-58.113-39.475
			c-1.401-0.71-7.909-3.751-15.893-3.073v0.001c-0.047,0.004-0.094,0.008-0.141,0.013c-1.65,0.156-3.277,0.456-4.88,0.922
			c-5.779,1.69-10.712,5.446-14.265,10.858c-0.001,0.002-0.003,0.005-0.005,0.008c-0.003,0.006-0.007,0.011-0.011,0.017
			c-3.268,4.991-5.394,11.273-6.458,19.121H46.949c-2.851-0.218-10.482-0.237-18.058,4.63c-0.032,0.021-0.064,0.041-0.095,0.061
			c-5.816,3.763-12.958,11.415-14.84,26.655c-0.32,1.033-0.489,2.12-0.489,3.23v34.814c0,1.111,0.169,2.201,0.49,3.235
			C14.628,120.667,16.013,125.508,18.084,129.668z"/>
		<path style="fill:#8B8B8B;" d="M16.401,127.984c0.003,0.008,0.007,0.015,0.01,0.022c2.592,5.199,6.204,9.332,10.739,12.232
			c0.039,0.025,0.088,0.056,0.135,0.085c0.533,0.334,1.079,0.665,1.659,0.982c0.022,0.013,0.044,0.024,0.067,0.036
			c6.99,3.754,13.647,3.761,16.245,3.564h77.72c0.006,0.05,0.013,0.099,0.02,0.147l0.096,0.668c0.07,0.473,0.144,0.936,0.224,1.41
			l0.086,0.506c1.738,9.826,5.476,17.215,10.963,22.126c0.021,0.02,0.043,0.038,0.065,0.057c0.351,0.302,0.703,0.594,1.057,0.872
			c0.038,0.029,0.076,0.059,0.113,0.088c1.176,0.918,2.439,1.721,3.747,2.39c0.05,0.025,0.109,0.055,0.168,0.085
			c0.357,0.181,0.717,0.349,1.074,0.511c0.05,0.023,0.102,0.047,0.15,0.067c1.234,0.541,2.522,0.979,3.825,1.316
			c0.059,0.016,0.121,0.029,0.181,0.044c0.345,0.083,0.69,0.161,1.033,0.232c0.001,0,0.001,0,0.001,0
			c0.025,0.005,0.05,0.01,0.076,0.016c1.807,0.377,3.569,0.509,5.24,0.509c6.848,0,12.211-2.505,13.537-3.178
			c0.905-0.46,12.183-6.203,26.87-15.867c0.051-0.033,0.063-0.042,0.114-0.076c9.449-6.317,18.339-12.778,26.299-19.406
			c0.101-0.079,0.201-0.16,0.3-0.242l0.535-0.456c0.875-0.735,1.748-1.479,2.623-2.236l0.747-0.644
			c1.143-0.997,2.275-2.013,3.408-3.033c0.039-0.035,0.079-0.072,0.121-0.11c1.835-1.69,3.614-3.345,5.259-4.95
			c6.808-6.646,11.602-12.876,14.631-19.019c0.134-0.212,0.266-0.428,0.396-0.65c0.022-0.037,0.043-0.074,0.064-0.111
			c0.021-0.038,0.043-0.077,0.066-0.117c0.244-0.431,0.484-0.875,0.712-1.34c0.023-0.046,0.045-0.092,0.067-0.138
			c0.018-0.038,0.036-0.078,0.056-0.12c0.233-0.498,0.445-0.975,0.634-1.45c0.049-0.126,0.097-0.255,0.145-0.387
			c0.19-0.517,0.36-0.996,0.501-1.458c0.06-0.196,0.113-0.399,0.169-0.607c0.12-0.45,0.244-0.902,0.349-1.388
			c0.056-0.259,0.104-0.528,0.151-0.825l0.009-0.052c0.074-0.397,0.143-0.796,0.196-1.217c0.045-0.359,0.077-0.734,0.103-1.108
			l0.007-0.091c0.032-0.324,0.058-0.648,0.07-0.979c0.024-0.587,0.027-1.182,0.011-1.774c0.126-4.739-1.033-9.31-3.358-13.235
			c-0.118-0.199-0.237-0.395-0.358-0.587c-2.849-5.771-7.248-11.605-13.414-17.799c-0.395-0.398-0.798-0.798-1.208-1.197
			c-1.181-1.153-2.379-2.285-3.58-3.401l-0.875-0.808c-1.081-0.994-2.168-1.976-3.279-2.958l-0.267-0.24
			c-0.056-0.049-0.113-0.097-0.168-0.145c-26.92-23.284-56.408-38.61-58.113-39.475c-1.401-0.711-7.909-3.752-15.893-3.073v0.001
			c-0.047,0.003-0.094,0.008-0.141,0.013c-1.651,0.156-3.277,0.456-4.88,0.922c-5.779,1.691-10.712,5.446-14.265,10.859
			c-0.001,0.002-0.003,0.005-0.005,0.008c-0.004,0.005-0.007,0.011-0.011,0.017c-3.269,4.991-5.395,11.273-6.459,19.12H45.266
			c-2.852-0.218-10.482-0.237-18.059,4.631c-0.032,0.021-0.064,0.041-0.094,0.061c-5.816,3.763-12.958,11.415-14.84,26.655
			c-0.32,1.033-0.488,2.121-0.488,3.23v34.814c0,1.112,0.169,2.201,0.49,3.235C12.946,118.985,14.33,123.825,16.401,127.984z"/>
		<path style="fill:#7D7D7D;" d="M14.718,126.302c0.003,0.008,0.007,0.014,0.01,0.021c2.591,5.199,6.204,9.332,10.739,12.232
			c0.04,0.024,0.088,0.057,0.135,0.085c0.533,0.334,1.079,0.664,1.66,0.982c0.021,0.012,0.044,0.024,0.066,0.036
			c6.99,3.754,13.647,3.761,16.245,3.564h77.72c0.006,0.049,0.013,0.099,0.02,0.147l0.096,0.667c0.07,0.474,0.144,0.938,0.224,1.41
			l0.086,0.507c1.739,9.825,5.476,17.215,10.963,22.125c0.021,0.02,0.043,0.038,0.065,0.057c0.351,0.303,0.703,0.594,1.057,0.872
			c0.038,0.03,0.076,0.059,0.113,0.089c1.176,0.917,2.439,1.721,3.747,2.39c0.05,0.025,0.109,0.055,0.168,0.084
			c0.357,0.182,0.717,0.35,1.074,0.512c0.05,0.023,0.102,0.046,0.15,0.067c1.234,0.541,2.522,0.978,3.825,1.316
			c0.06,0.016,0.121,0.03,0.181,0.045c0.345,0.082,0.69,0.161,1.033,0.231c0.001,0,0.001,0,0.001,0
			c0.025,0.006,0.051,0.011,0.076,0.016c1.807,0.378,3.569,0.51,5.24,0.51c6.848,0,12.212-2.505,13.538-3.179
			c0.905-0.459,12.183-6.202,26.87-15.867c0.051-0.033,0.063-0.041,0.114-0.075c9.449-6.317,18.339-12.779,26.299-19.407
			c0.102-0.078,0.201-0.159,0.3-0.242l0.535-0.455c0.875-0.735,1.748-1.48,2.623-2.236l0.746-0.645
			c1.143-0.996,2.275-2.012,3.408-3.032c0.04-0.035,0.079-0.072,0.121-0.11c1.835-1.69,3.614-3.345,5.259-4.951
			c6.808-6.646,11.602-12.875,14.631-19.018c0.134-0.212,0.266-0.428,0.396-0.65c0.022-0.037,0.044-0.074,0.064-0.111
			c0.021-0.038,0.044-0.077,0.066-0.117c0.244-0.432,0.484-0.876,0.712-1.34c0.022-0.046,0.045-0.092,0.066-0.138
			c0.018-0.038,0.036-0.078,0.056-0.119c0.233-0.498,0.445-0.975,0.634-1.45c0.05-0.125,0.097-0.255,0.145-0.386
			c0.19-0.517,0.361-0.996,0.501-1.458c0.06-0.196,0.113-0.399,0.169-0.607c0.12-0.45,0.245-0.902,0.349-1.387
			c0.056-0.259,0.104-0.529,0.151-0.825l0.009-0.052c0.074-0.397,0.143-0.796,0.196-1.216c0.045-0.359,0.077-0.734,0.103-1.109
			l0.007-0.091c0.032-0.324,0.058-0.647,0.07-0.979c0.023-0.587,0.027-1.182,0.011-1.773c0.126-4.74-1.034-9.31-3.358-13.235
			c-0.118-0.199-0.237-0.395-0.358-0.587c-2.849-5.77-7.248-11.605-13.414-17.799c-0.394-0.397-0.798-0.798-1.208-1.197
			c-1.181-1.153-2.379-2.285-3.58-3.401l-0.875-0.808c-1.08-0.994-2.167-1.976-3.279-2.958l-0.267-0.241
			c-0.056-0.048-0.113-0.097-0.168-0.145c-26.921-23.284-56.408-38.61-58.113-39.475c-1.401-0.71-7.909-3.752-15.893-3.073v0
			c-0.047,0.004-0.094,0.008-0.141,0.013c-1.65,0.156-3.277,0.456-4.88,0.921c-5.779,1.691-10.712,5.446-14.265,10.859
			c-0.001,0.002-0.003,0.005-0.005,0.008c-0.003,0.005-0.007,0.011-0.011,0.017c-3.269,4.991-5.394,11.273-6.459,19.12H43.583
			c-2.851-0.218-10.482-0.237-18.058,4.631c-0.032,0.021-0.064,0.041-0.095,0.061c-5.816,3.763-12.958,11.414-14.84,26.655
			c-0.32,1.033-0.489,2.12-0.489,3.229v34.815c0,1.111,0.169,2.201,0.49,3.235C11.263,117.301,12.647,122.142,14.718,126.302z"/>
		<path style="fill:#6E6E6E;" d="M13.035,124.619c0.003,0.007,0.007,0.014,0.01,0.021c2.592,5.198,6.204,9.332,10.739,12.231
			c0.04,0.025,0.089,0.057,0.135,0.086c0.533,0.334,1.079,0.664,1.659,0.982c0.022,0.012,0.044,0.025,0.067,0.036
			c6.989,3.754,13.647,3.76,16.245,3.564h77.72c0.007,0.049,0.014,0.099,0.02,0.147l0.096,0.667c0.07,0.473,0.144,0.936,0.224,1.41
			l0.085,0.507c1.739,9.825,5.476,17.215,10.964,22.125c0.021,0.02,0.043,0.038,0.065,0.057c0.351,0.303,0.703,0.594,1.057,0.872
			c0.038,0.03,0.076,0.059,0.113,0.088c1.176,0.918,2.438,1.722,3.747,2.391c0.049,0.024,0.109,0.055,0.168,0.084
			c0.357,0.181,0.716,0.349,1.074,0.511c0.05,0.023,0.102,0.047,0.15,0.068c1.234,0.541,2.522,0.978,3.825,1.315
			c0.06,0.016,0.121,0.029,0.181,0.044c0.345,0.083,0.689,0.162,1.033,0.232c0.001,0,0.001,0,0.001,0
			c0.026,0.006,0.051,0.01,0.076,0.016c1.807,0.378,3.569,0.51,5.24,0.51c6.848,0,12.212-2.505,13.538-3.179
			c0.905-0.459,12.183-6.203,26.87-15.867c0.051-0.033,0.063-0.042,0.114-0.076c9.449-6.316,18.339-12.778,26.299-19.406
			c0.101-0.079,0.201-0.159,0.3-0.242l0.535-0.455c0.875-0.736,1.748-1.479,2.623-2.237l0.747-0.643
			c1.143-0.996,2.275-2.013,3.407-3.033c0.04-0.035,0.08-0.072,0.121-0.11c1.835-1.689,3.614-3.344,5.259-4.95
			c6.808-6.646,11.601-12.876,14.631-19.018c0.134-0.212,0.267-0.428,0.397-0.65c0.021-0.037,0.043-0.074,0.064-0.111
			c0.021-0.038,0.044-0.077,0.066-0.117c0.243-0.431,0.484-0.875,0.712-1.34c0.022-0.046,0.045-0.092,0.067-0.139
			c0.018-0.038,0.036-0.078,0.056-0.119c0.233-0.498,0.445-0.975,0.633-1.45c0.05-0.126,0.097-0.255,0.145-0.387
			c0.189-0.517,0.36-0.996,0.501-1.458c0.06-0.196,0.113-0.399,0.169-0.606c0.12-0.45,0.244-0.902,0.349-1.388
			c0.056-0.259,0.104-0.529,0.151-0.825l0.009-0.052c0.074-0.397,0.142-0.796,0.196-1.217c0.045-0.359,0.077-0.734,0.103-1.109
			l0.007-0.091c0.031-0.324,0.058-0.647,0.07-0.978c0.024-0.587,0.027-1.182,0.011-1.774c0.126-4.739-1.034-9.31-3.358-13.235
			c-0.118-0.199-0.237-0.395-0.358-0.587c-2.849-5.771-7.248-11.605-13.414-17.8c-0.394-0.398-0.798-0.798-1.207-1.197
			c-1.181-1.152-2.379-2.284-3.581-3.401l-0.875-0.808c-1.081-0.994-2.168-1.976-3.279-2.958l-0.267-0.24
			c-0.056-0.049-0.113-0.097-0.168-0.146c-26.92-23.284-56.408-38.61-58.113-39.475c-1.401-0.71-7.909-3.751-15.893-3.072v0.001
			c-0.047,0.003-0.094,0.008-0.141,0.013c-1.65,0.156-3.276,0.456-4.88,0.922c-5.779,1.691-10.712,5.446-14.265,10.858
			c-0.002,0.002-0.003,0.005-0.005,0.008c-0.004,0.006-0.008,0.011-0.011,0.017c-3.269,4.991-5.395,11.273-6.458,19.12H41.9
			c-2.851-0.218-10.482-0.237-18.059,4.631c-0.032,0.02-0.064,0.041-0.095,0.061c-5.816,3.763-12.958,11.414-14.84,26.655
			c-0.32,1.033-0.488,2.12-0.488,3.23v34.814c0,1.111,0.169,2.201,0.49,3.235C9.58,115.619,10.964,120.459,13.035,124.619z"/>
		<path style="fill:#606060;" d="M11.352,122.936c0.003,0.008,0.007,0.015,0.01,0.021c2.592,5.199,6.213,9.319,10.739,12.232
			c0.039,0.025,0.088,0.057,0.135,0.085c0.53,0.339,1.079,0.665,1.659,0.983c0.022,0.012,0.045,0.023,0.067,0.036
			c6.971,3.788,13.648,3.76,16.245,3.563h77.72c0.006,0.049,0.013,0.098,0.02,0.147l0.096,0.667c0.07,0.473,0.144,0.936,0.224,1.41
			l0.086,0.506c1.738,9.826,5.427,17.27,10.963,22.126c0.021,0.02,0.043,0.038,0.065,0.057c0.349,0.304,0.702,0.595,1.057,0.872
			c0.038,0.029,0.076,0.059,0.113,0.088c1.182,0.911,2.442,1.715,3.747,2.39c0.05,0.025,0.109,0.055,0.168,0.085
			c0.358,0.181,0.715,0.352,1.074,0.511c0.05,0.023,0.102,0.047,0.15,0.067c1.234,0.541,2.521,0.984,3.825,1.316
			c0.06,0.016,0.121,0.03,0.181,0.044c0.345,0.086,0.69,0.161,1.033,0.232h0.001c0.025,0.005,0.05,0.01,0.076,0.016
			c1.81,0.36,3.569,0.509,5.24,0.509c6.848,0,12.213-2.502,13.538-3.178c0.906-0.458,12.183-6.203,26.869-15.867
			c0.051-0.033,0.064-0.042,0.114-0.076c9.494-6.25,18.339-12.778,26.299-19.406c0.101-0.079,0.201-0.16,0.3-0.242l0.535-0.456
			c0.875-0.735,1.748-1.48,2.623-2.236l0.746-0.644c1.143-0.997,2.279-2.008,3.408-3.033c0.04-0.035,0.08-0.072,0.121-0.11
			c1.845-1.679,3.614-3.345,5.259-4.95c6.808-6.646,11.602-12.876,14.631-19.019c0.134-0.212,0.266-0.428,0.396-0.65
			c0.022-0.037,0.043-0.074,0.064-0.111c0.021-0.038,0.044-0.077,0.066-0.117c0.246-0.43,0.484-0.875,0.712-1.34
			c0.023-0.046,0.045-0.092,0.067-0.138c0.018-0.038,0.037-0.078,0.056-0.119c0.236-0.496,0.445-0.975,0.634-1.45
			c0.049-0.126,0.098-0.255,0.145-0.386c0.195-0.515,0.36-0.996,0.502-1.458c0.06-0.196,0.116-0.398,0.168-0.607
			c0.126-0.448,0.245-0.902,0.349-1.387c0.056-0.259,0.104-0.529,0.151-0.825l0.009-0.052c0.074-0.397,0.143-0.796,0.196-1.217
			c0.045-0.359,0.077-0.734,0.103-1.108l0.007-0.091c0.032-0.324,0.058-0.647,0.07-0.979c0.023-0.587,0.027-1.182,0.011-1.774
			c0.126-4.739-1.033-9.31-3.358-13.235c-0.118-0.199-0.237-0.395-0.358-0.587c-2.849-5.771-7.248-11.605-13.413-17.799
			c-0.395-0.397-0.798-0.798-1.208-1.197c-1.181-1.153-2.379-2.285-3.58-3.401l-0.875-0.807c-1.08-0.994-2.167-1.976-3.279-2.958
			l-0.267-0.24c-0.056-0.049-0.112-0.097-0.168-0.145c-26.737-23.495-56.406-38.614-58.113-39.475
			c-1.399-0.713-7.909-3.751-15.893-3.073v0c-0.047,0.004-0.094,0.008-0.141,0.013c-1.651,0.149-3.277,0.455-4.88,0.921
			c-5.779,1.691-10.712,5.446-14.265,10.859c-0.001,0.002-0.003,0.005-0.005,0.008c-0.004,0.005-0.007,0.011-0.011,0.017
			c-3.269,4.991-5.394,11.273-6.459,19.12H40.217c-2.852-0.218-10.482-0.237-18.058,4.631c-0.032,0.021-0.064,0.041-0.095,0.061
			C16.249,44.348,9.106,52,7.224,67.24c-0.32,1.033-0.488,2.121-0.488,3.23v34.815c0,1.111,0.169,2.201,0.49,3.235
			C7.897,113.936,9.281,118.776,11.352,122.936z"/>
	</g>
	<path style="fill:#FFFFFF;" d="M11.352,122.936c0.003,0.008,0.007,0.015,0.01,0.021c2.592,5.199,6.213,9.319,10.739,12.232
		c0.039,0.025,0.088,0.057,0.135,0.085c0.53,0.339,1.079,0.665,1.659,0.983c0.022,0.012,0.045,0.023,0.067,0.036
		c6.971,3.788,13.648,3.76,16.245,3.563h77.72c0.006,0.049,0.013,0.098,0.02,0.147l0.096,0.667c0.07,0.473,0.144,0.936,0.224,1.41
		l0.086,0.506c1.738,9.826,5.427,17.27,10.963,22.126c0.021,0.02,0.043,0.038,0.065,0.057c0.349,0.304,0.702,0.595,1.057,0.872
		c0.038,0.029,0.076,0.059,0.113,0.088c1.182,0.911,2.442,1.715,3.747,2.39c0.05,0.025,0.109,0.055,0.168,0.085
		c0.358,0.181,0.715,0.352,1.074,0.511c0.05,0.023,0.102,0.047,0.15,0.067c1.234,0.541,2.521,0.984,3.825,1.316
		c0.06,0.016,0.121,0.03,0.181,0.044c0.345,0.086,0.69,0.161,1.033,0.232h0.001c0.025,0.005,0.05,0.01,0.076,0.016
		c1.81,0.36,3.569,0.509,5.24,0.509c6.848,0,12.213-2.502,13.538-3.178c0.906-0.458,12.183-6.203,26.869-15.867
		c0.051-0.033,0.064-0.042,0.114-0.076c9.494-6.25,18.339-12.778,26.299-19.406c0.101-0.079,0.201-0.16,0.3-0.242l0.535-0.456
		c0.875-0.735,1.748-1.48,2.623-2.236l0.746-0.644c1.143-0.997,2.279-2.008,3.408-3.033c0.04-0.035,0.08-0.072,0.121-0.11
		c1.845-1.679,3.614-3.345,5.259-4.95c6.808-6.646,11.602-12.876,14.631-19.019c0.134-0.212,0.266-0.428,0.396-0.65
		c0.022-0.037,0.043-0.074,0.064-0.111c0.021-0.038,0.044-0.077,0.066-0.117c0.246-0.43,0.484-0.875,0.712-1.34
		c0.023-0.046,0.045-0.092,0.067-0.138c0.018-0.038,0.037-0.078,0.056-0.119c0.236-0.496,0.445-0.975,0.634-1.45
		c0.049-0.126,0.098-0.255,0.145-0.386c0.195-0.515,0.36-0.996,0.502-1.458c0.06-0.196,0.116-0.398,0.168-0.607
		c0.126-0.448,0.245-0.902,0.349-1.387c0.056-0.259,0.104-0.529,0.151-0.825l0.009-0.052c0.074-0.397,0.143-0.796,0.196-1.217
		c0.045-0.359,0.077-0.734,0.103-1.108l0.007-0.091c0.032-0.324,0.058-0.647,0.07-0.979c0.023-0.587,0.027-1.182,0.011-1.774
		c0.126-4.739-1.033-9.31-3.358-13.235c-0.118-0.199-0.237-0.395-0.358-0.587c-2.849-5.771-7.248-11.605-13.413-17.799
		c-0.395-0.397-0.798-0.798-1.208-1.197c-1.181-1.153-2.379-2.285-3.58-3.401l-0.875-0.807c-1.08-0.994-2.167-1.976-3.279-2.958
		l-0.267-0.24c-0.056-0.049-0.112-0.097-0.168-0.145c-26.737-23.495-56.406-38.614-58.113-39.475
		c-1.399-0.713-7.909-3.751-15.893-3.073v0c-0.047,0.004-0.094,0.008-0.141,0.013c-1.651,0.149-3.277,0.455-4.88,0.921
		c-5.779,1.691-10.712,5.446-14.265,10.859c-0.001,0.002-0.003,0.005-0.005,0.008c-0.004,0.005-0.007,0.011-0.011,0.017
		c-3.269,4.991-5.394,11.273-6.459,19.12H40.217c-2.852-0.218-10.482-0.237-18.058,4.631c-0.032,0.021-0.064,0.041-0.095,0.061
		C16.249,44.348,9.106,52,7.224,67.24c-0.32,1.033-0.488,2.121-0.488,3.23v34.815c0,1.111,0.169,2.201,0.49,3.235
		C7.897,113.936,9.281,118.776,11.352,122.936z"/>
	<g>
		<path style="fill:#BC6B33;" d="M154.631,157.984c0,0,35.876-18.039,63.595-45.101c6.612-6.455,10.539-11.94,12.723-16.568
			c1.355-1.973,2.483-4.749,2.314-8.44c0.169-3.688-0.959-6.464-2.314-8.438c-2.184-4.631-6.111-10.116-12.723-16.567
			c-27.719-27.061-63.595-45.102-63.595-45.102s-23.255-12.026-26.262,23.052v5.997H39.711c0,0-19.678-2.564-21.847,23.736
			l-0.204-0.085v4.972v24.871v4.972l0.204-0.09c2.169,26.301,21.847,23.736,21.847,23.736h88.658v6.002
			C131.376,170.012,154.631,157.984,154.631,157.984z"/>
		<path style="opacity:0.6;fill:#E28B41;" d="M147.745,20.792c-1.071-1.631-2.107-3.286-3.132-4.951
			c-3.761,0.322-7.892,2.036-11.09,6.915c11.366,10.965,23.217,21.441,34.443,32.555C163.693,42.628,155.001,31.853,147.745,20.792z
			"/>
		<path style="opacity:0.6;fill:#E28B41;" d="M210.645,55.854c-0.709,0.997-1.413,1.998-2.12,2.995
			c-2.396,3.386-4.743,7.03-7.728,9.941c-4.004,3.904-8.364,7.285-12.878,10.529c10.876-4.6,21.711-9.307,32.377-14.365
			c-0.66-0.685-1.347-1.377-2.07-2.083C215.754,60.458,213.216,58.117,210.645,55.854z"/>
		<path style="opacity:0.6;fill:#E28B41;" d="M194.727,90.308c12.974,0.538,25.303-4.761,37.901-7.433
			c-0.428-1.338-1.024-2.483-1.679-3.436c-0.531-1.125-1.178-2.305-1.927-3.533C217.607,80.733,205.833,84.777,194.727,90.308z"/>
		<path style="fill:#764716;" d="M154.631,157.984c0,0,35.876-18.039,63.595-45.101c6.612-6.455,10.539-11.94,12.723-16.568
			c1.355-1.973,2.483-4.749,2.314-8.44c0.011-0.238,0.003-0.462,0.003-0.693c-3.269-0.13-6.663,0.62-9.809-0.274
			c-12.856-3.653-95.088-40.089-95.088-40.089H39.711c0,0-19.678-2.564-21.847,23.736l-0.204-0.085v34.815l0.204-0.09
			c2.169,26.301,21.847,23.736,21.847,23.736h88.658v6.002C131.376,170.012,154.631,157.984,154.631,157.984z"/>
		<g>
			<path style="opacity:0.6;fill:#E28B41;" d="M80.083,105.008c-7.629,6.984-13.737,15.42-19.641,23.923h6.447
				c1.217-2.496,2.551-4.918,4.017-7.207C74.192,116.59,79.107,111.246,80.083,105.008z"/>
			<path style="opacity:0.6;fill:#E28B41;" d="M107.32,128.932h10.542c2.108-5.527,4.093-11.109,6.701-16.392
				C119.491,118.599,113.232,123.604,107.32,128.932z"/>
			<path style="opacity:0.6;fill:#E28B41;" d="M136.699,138.426c5.505-2.561,11.42-4.625,16.886-7.422
				c-0.112-4.477-0.374-8.948-0.555-13.421c-5.442,2.837-10.641,6.158-16.202,8.789c-2.804,1.326-5.63,2.61-8.458,3.888v4.675
				c0.231,2.698,0.583,5.114,1.035,7.282C131.789,140.864,134.212,139.584,136.699,138.426z"/>
			<path style="opacity:0.6;fill:#E28B41;" d="M17.872,105.266c8.95-2.084,18.159-3.464,26.915-6.165
				c-0.865-6.811-1.655-13.631-2.282-20.467c-8.294-0.812-16.561-2.785-24.844-3.952v30.604l0.204-0.09
				C17.866,105.22,17.87,105.241,17.872,105.266z"/>
		</g>
		<path style="opacity:0.4;fill:#764716;" d="M62.492,69.091C52.303,61.004,40.379,55.624,29.228,49.03
			c-3.256,1.756-6.568,4.847-8.809,10.221c1.99,0.349,3.971,0.697,5.927,1.077C38.533,62.689,50.234,67.021,62.492,69.091z"/>
		<path style="opacity:0.4;fill:#764716;" d="M40.634,117.165c8.526-6.618,19.444-11.481,25.616-20.668
			c-4.848,0.931-9.339,3.25-13.606,5.658c-4.479,2.527-8.887,5.117-13.488,7.419c-5.938,2.972-12.009,5.677-18.024,8.494
			c2.178,4.377,5.112,7.022,8.011,8.606C32.871,123.29,36.799,120.141,40.634,117.165z"/>
		<path style="opacity:0.4;fill:#764716;" d="M187.388,110.967c3.477,2.19,6.916,4.414,10.312,6.73
			c2.86,1.951,5.702,3.948,8.464,6.049c2.374-1.983,4.734-4.036,7.058-6.15c-11.39-5.056-23.223-9.178-34.69-14.041
			C180.801,106.692,184.145,108.924,187.388,110.967z"/>
		<path style="opacity:0.4;fill:#764716;" d="M180.508,142.689c1.17-0.771,2.366-1.571,3.578-2.393
			c-4.049-3.499-7.851-7.298-11.888-10.814C174.797,133.989,177.669,138.33,180.508,142.689z"/>
		<path style="opacity:0.4;fill:#764716;" d="M84.021,128.344c-0.084,0.195-0.163,0.392-0.246,0.588h5.597
			c0.057-4.488,0.066-8.981,0.383-13.452C88.195,119.895,85.833,124.103,84.021,128.344z"/>
		<path style="opacity:0.4;fill:#764716;" d="M205.697,80.14c-9.748,1.885-19.405,4.133-28.729,7.573
			c18.248,1.127,36.063,5.258,54.007,8.562c1.343-1.97,2.456-4.732,2.289-8.399c0.011-0.238,0.003-0.462,0.003-0.693
			c-3.269-0.13-6.663,0.62-9.809-0.274C220.534,86.077,214.014,83.548,205.697,80.14z"/>
		<path style="opacity:0.4;fill:#764716;" d="M164.854,128.932c-11.426,6.366-22.399,13.605-32.667,21.722
			c2.894,5.841,6.915,8.259,10.755,9.023c2.484-3.844,5.021-7.648,7.721-11.328C155.277,142.055,162.273,136.499,164.854,128.932z"
			/>
		<path style="fill:#E28B41;" d="M165.236,145.385c0,0,27.153-14.798,48.129-36.995c5.004-5.295,7.977-9.794,9.63-13.589
			c1.025-1.62,1.878-3.896,1.75-6.925c0.128-3.025-0.725-5.302-1.75-6.921c-1.653-3.798-4.625-8.298-9.63-13.59
			c-20.977-22.197-48.129-36.995-48.129-36.995s-17.601-9.866-19.876,18.908v4.92h-21.619H96.146H53.455
			c0,0-14.891-2.104-16.533,19.47l-0.153-0.07v28.558l0.153-0.073c1.642,21.576,16.533,19.47,16.533,19.47h42.691h2.603h46.612
			v4.925C147.636,155.251,165.236,145.385,165.236,145.385z"/>
		<path style="fill:#E28B41;" d="M165.236,145.385c2.795-1.631,5.526-3.362,8.226-5.142c2.712-1.759,5.374-3.596,8.015-5.456
			c1.306-0.951,2.626-1.882,3.919-2.85c1.286-0.977,2.59-1.929,3.861-2.925c1.267-1.003,2.548-1.984,3.799-3.003l3.732-3.082
			l3.672-3.15l3.586-3.243c1.202-1.073,2.329-2.228,3.498-3.337c1.174-1.103,2.281-2.273,3.397-3.432l1.676-1.737
			c0.512-0.551,1.056-1.205,1.583-1.801l1.592-1.831c0.545-0.604,0.967-1.262,1.455-1.889l1.42-1.899l1.26-2.014
			c0.9-1.314,1.494-2.772,2.212-4.167l0.034-0.066l0.034-0.062c0.132-0.243,0.285-0.475,0.403-0.724
			c0.118-0.251,0.251-0.493,0.346-0.755c0.211-0.509,0.387-1.038,0.504-1.578c0.067-0.27,0.128-0.541,0.16-0.818
			c0.039-0.274,0.09-0.549,0.099-0.829c0.012-0.279,0.053-0.555,0.042-0.836l-0.011-0.842v-0.085l-0.005-0.842
			c0.008-0.28-0.037-0.556-0.053-0.834c-0.012-0.279-0.066-0.551-0.108-0.824c-0.036-0.275-0.101-0.543-0.169-0.811
			c-0.124-0.537-0.305-1.059-0.521-1.563c-0.096-0.258-0.232-0.498-0.352-0.744c-0.12-0.246-0.276-0.475-0.41-0.713l-0.024-0.043
			l-0.049-0.098c-0.516-0.998-1.003-2.009-1.535-3.001l-1.826-2.864c-1.37-1.816-2.699-3.668-4.276-5.338
			c-0.77-0.841-1.502-1.741-2.301-2.533l-2.448-2.48c-0.807-0.84-1.641-1.635-2.481-2.417l-2.506-2.368
			c-1.728-1.53-3.429-3.092-5.199-4.575c-1.769-1.487-3.532-2.977-5.356-4.397c-1.793-1.456-3.648-2.836-5.487-4.234
			c-1.865-1.364-3.718-2.747-5.622-4.057c-1.891-1.331-3.803-2.627-5.717-3.923c-1.927-1.275-3.864-2.535-5.822-3.762
			c-1.962-1.216-3.936-2.423-5.933-3.563c-1.866-1.151-3.967-1.796-6.089-1.97c-2.111-0.15-4.221,0.315-5.927,1.505
			c-1.718,1.167-3.066,2.917-4.028,4.889c-0.977,1.97-1.641,4.129-2.134,6.332c-0.488,2.209-0.756,4.479-0.974,6.753l0.003-0.083
			l-0.015,4.92l-0.003,1.023h-1.02c-7.659-0.001-15.317-0.105-22.977-0.162l-22.976-0.2l-11.488-0.123l-11.488-0.164l-11.487-0.165
			l-11.489-0.21l11.489-0.212l11.487-0.163l11.488-0.166l11.488-0.121l22.976-0.201c7.66-0.056,15.318-0.16,22.977-0.162
			l-1.025,1.024l-0.014-4.92v-0.044l0.003-0.038c0.212-2.349,0.475-4.703,0.975-7.035c0.508-2.328,1.198-4.646,2.274-6.847
			c1.057-2.19,2.599-4.285,4.726-5.746c2.114-1.496,4.8-2.092,7.307-1.919c1.261,0.082,2.491,0.336,3.68,0.703
			c0.592,0.189,1.175,0.403,1.751,0.659l0.432,0.202c0.15,0.071,0.312,0.159,0.43,0.224l0.773,0.432
			c2.043,1.151,4.04,2.358,6.033,3.575c1.985,1.229,3.949,2.49,5.902,3.767c1.941,1.295,3.881,2.591,5.775,3.955
			c1.915,1.333,3.779,2.74,5.655,4.129c1.85,1.423,3.715,2.827,5.519,4.309c1.834,1.445,3.609,2.963,5.39,4.476
			c1.78,1.511,3.494,3.101,5.233,4.661l2.544,2.43c0.855,0.808,1.697,1.621,2.494,2.46l2.434,2.493
			c0.843,0.849,1.575,1.758,2.367,2.635c1.606,1.721,2.985,3.657,4.396,5.555l1.901,3.021c0.561,1.056,1.079,2.142,1.618,3.21
			l-0.074-0.138c0.163,0.287,0.343,0.564,0.489,0.861c0.144,0.296,0.303,0.586,0.418,0.896c0.256,0.606,0.468,1.234,0.614,1.874
			c0.079,0.318,0.153,0.637,0.194,0.962c0.048,0.323,0.109,0.647,0.123,0.972c0.017,0.325,0.063,0.65,0.054,0.973l-0.011,0.973
			v-0.084l-0.004,0.972c0.004,0.323-0.044,0.647-0.065,0.972c-0.018,0.324-0.081,0.646-0.132,0.968
			c-0.045,0.324-0.122,0.642-0.205,0.958c-0.152,0.636-0.37,1.259-0.632,1.859c-0.117,0.308-0.279,0.594-0.425,0.887
			c-0.148,0.293-0.329,0.566-0.494,0.851l0.066-0.127c-0.78,1.469-1.45,3.008-2.405,4.356c-0.452,0.693-0.89,1.393-1.351,2.078
			l-1.519,1.961c-0.516,0.639-0.99,1.337-1.541,1.925l-1.624,1.803c-0.554,0.605-1.054,1.189-1.652,1.815l-1.723,1.726
			c-1.148,1.15-2.285,2.313-3.489,3.405c-1.197,1.098-2.353,2.24-3.583,3.3l-3.667,3.204l-3.749,3.104l-3.838,2.99
			c-1.286,0.989-2.6,1.938-3.899,2.907c-1.303,0.964-2.639,1.883-3.957,2.826c-1.325,0.933-2.674,1.828-4.011,2.744
			c-2.7,1.791-5.417,3.555-8.183,5.236C170.891,142.232,168.091,143.861,165.236,145.385z"/>
	</g>
</g>
</svg>
